<svg width="41" height="41" viewBox="0 0 41 41" fill="none" xmlns="http://www.w3.org/2000/svg">
<path d="M12.7342 13.5833H17.828V27.1667L14.4321 25.4688M28.0155 13.5833H23.7707C23.5455 13.5833 23.3296 13.6728 23.1704 13.832C23.0112 13.9912 22.9217 14.2071 22.9217 14.4323V19.526C22.9217 19.7512 23.0112 19.9671 23.1704 20.1263C23.3296 20.2856 23.5455 20.375 23.7707 20.375H26.1868C26.3083 20.375 26.4284 20.4011 26.539 20.4516C26.6495 20.502 26.748 20.5756 26.8277 20.6673C26.9073 20.7591 26.9664 20.8668 27.0008 20.9834C27.0353 21.0999 27.0443 21.2225 27.0273 21.3428L26.3175 26.3177L22.9217 27.1667M33.9582 6.79167L30.5623 31.4115L20.3748 34.8073L10.1873 31.4115L6.7915 6.79167H33.9582Z" stroke="#333333" stroke-width="2" stroke-linecap="round" stroke-linejoin="round"/>
</svg>
