<svg width="41" height="41" viewBox="0 0 41 41" fill="none" xmlns="http://www.w3.org/2000/svg">
<path d="M15.2812 32.2604C7.98021 34.6375 7.98021 28.0156 5.09375 27.1667M25.4687 35.6562V29.7135C25.4687 28.0156 25.6385 27.3365 24.6198 26.3177C29.374 25.8083 33.9583 23.9406 33.9583 16.1302C33.9563 14.1011 33.1646 12.1525 31.751 10.6969C32.414 8.93438 32.353 6.9812 31.5813 5.26354C31.5813 5.26354 29.7135 4.75416 25.6385 7.47083C22.1871 6.57193 18.5629 6.57193 15.1115 7.47083C11.0365 4.75416 9.16875 5.26354 9.16875 5.26354C8.39701 6.9812 8.33598 8.93438 8.99896 10.6969C7.58536 12.1525 6.79373 14.1011 6.79167 16.1302C6.79167 23.9406 11.376 25.8083 16.1302 26.3177C15.1115 27.3365 15.1115 28.3552 15.2812 29.7135V35.6562" stroke="#333333" stroke-width="2" stroke-linecap="round" stroke-linejoin="round"/>
</svg>
