<svg width="41" height="41" viewBox="0 0 41 41" fill="none" xmlns="http://www.w3.org/2000/svg">
<path d="M10.7072 14.7906C6.28925 16.0181 3.396 18.0607 3.396 20.375C3.396 24.1274 10.9976 27.1667 20.3752 27.1667C21.6877 27.1667 22.9662 27.1072 24.1921 26.9935M30.0397 25.9594C34.4594 24.7336 37.3543 22.6893 37.3543 20.375C37.3543 16.6226 29.7528 13.5833 20.3752 13.5833C19.0627 13.5833 17.7841 13.6428 16.5549 13.7565M10.7055 25.9561C9.55771 30.3961 9.88202 33.9244 11.8856 35.079C15.1337 36.9552 21.5688 31.892 26.2567 23.7708C26.9138 22.6332 27.5013 21.4973 28.0158 20.375M30.0431 14.799C31.1926 10.3573 30.87 6.8256 28.8648 5.67102C25.6167 3.79482 19.1816 8.85801 14.4936 16.9791C13.8365 18.1168 13.249 19.2544 12.7329 20.375M20.3751 9.20951C17.1066 5.99705 13.8891 4.51307 11.8856 5.67105C8.63744 7.54555 9.80391 15.6497 14.4936 23.7708C15.149 24.9084 15.84 25.9849 16.5514 26.9901M20.3752 31.5371C23.6454 34.7513 26.8629 36.2369 28.8647 35.079C32.1129 33.2045 30.9464 25.1003 26.2567 16.9792C25.62 15.8755 24.9324 14.8007 24.1989 13.7582M19.5262 21.8454C19.7194 21.9587 19.933 22.0326 20.1549 22.0629C20.3767 22.0933 20.6024 22.0794 20.8189 22.0222C21.0354 21.9649 21.2384 21.8654 21.4163 21.7294C21.5942 21.5934 21.7434 21.4235 21.8553 21.2296C21.9673 21.0357 22.0398 20.8216 22.0687 20.5995C22.0975 20.3775 22.0822 20.1519 22.0235 19.9358C21.9648 19.7197 21.864 19.5173 21.7268 19.3404C21.5896 19.1634 21.4188 19.0153 21.2241 18.9046C20.8343 18.683 20.3727 18.6246 19.94 18.7421C19.5073 18.8595 19.1387 19.1434 18.9145 19.5317C18.6903 19.92 18.6288 20.3812 18.7434 20.8146C18.858 21.2481 19.1394 21.6187 19.5262 21.8454Z" stroke="#333333" stroke-width="2" stroke-linecap="round" stroke-linejoin="round"/>
</svg>
