<svg width="52" height="52" viewBox="0 0 52 52" fill="none" xmlns="http://www.w3.org/2000/svg">
<path d="M20.75 24.3125V30.25M20.75 20.75V20.7619M25.5 30.25V24.3125M30.25 30.25V26.6875C30.25 26.0576 29.9998 25.4535 29.5544 25.0081C29.109 24.5627 28.5049 24.3125 27.875 24.3125C27.2451 24.3125 26.641 24.5627 26.1956 25.0081C25.7502 25.4535 25.5 26.0576 25.5 26.6875M16 18.375C16 17.7451 16.2502 17.141 16.6956 16.6956C17.141 16.2502 17.7451 16 18.375 16H32.625C33.2549 16 33.859 16.2502 34.3044 16.6956C34.7498 17.141 35 17.7451 35 18.375V32.625C35 33.2549 34.7498 33.859 34.3044 34.3044C33.859 34.7498 33.2549 35 32.625 35H18.375C17.7451 35 17.141 34.7498 16.6956 34.3044C16.2502 33.859 16 33.2549 16 32.625V18.375Z" stroke="#C7C7C7" stroke-width="1.42" stroke-linecap="round" stroke-linejoin="round"/>
<circle cx="26" cy="26" r="26" fill="#D9D9D9" fill-opacity="0.1"/>
</svg>
