<svg width="52" height="52" viewBox="0 0 52 52" fill="none" xmlns="http://www.w3.org/2000/svg">
<path d="M23.0588 34.6566C18 36.297 18 31.7272 16 31.1414M30.1176 37V32.899C30.1176 31.7272 30.2353 31.2586 29.5294 30.5555C32.8235 30.204 36 28.9151 36 23.5252C35.9986 22.1249 35.4501 20.7802 34.4706 19.7757C34.93 18.5594 34.8877 17.2115 34.3529 16.0261C34.3529 16.0261 33.0588 15.6746 30.2353 17.5494C27.8438 16.9291 25.3327 16.9291 22.9412 17.5494C20.1176 15.6746 18.8235 16.0261 18.8235 16.0261C18.2888 17.2115 18.2465 18.5594 18.7059 19.7757C17.7264 20.7802 17.1779 22.1249 17.1765 23.5252C17.1765 28.9151 20.3529 30.204 23.6471 30.5555C22.9412 31.2586 22.9412 31.9616 23.0588 32.899V37" stroke="#C7C7C7" stroke-width="1.42" stroke-linecap="round" stroke-linejoin="round"/>
<circle cx="26" cy="26" r="26" fill="#D9D9D9" fill-opacity="0.1"/>
</svg>
