<svg width="52" height="52" viewBox="0 0 52 52" fill="none" xmlns="http://www.w3.org/2000/svg">
<path d="M16.0727 20.2597C16.0727 19.6508 16.3162 19.0668 16.7496 18.6362C17.183 18.2055 17.7709 17.9636 18.3838 17.9636H34.5616C35.1746 17.9636 35.7624 18.2055 36.1958 18.6362C36.6292 19.0668 36.8727 19.6508 36.8727 20.2597M16.0727 20.2597V31.7403C16.0727 32.3492 16.3162 32.9332 16.7496 33.3639C17.183 33.7945 17.7709 34.0364 18.3838 34.0364H34.5616C35.1746 34.0364 35.7624 33.7945 36.1958 33.3639C36.6292 32.9332 36.8727 32.3492 36.8727 31.7403V20.2597M16.0727 20.2597L26.4727 27.1481L36.8727 20.2597" stroke="#C7C7C7" stroke-width="1.41818" stroke-linecap="round" stroke-linejoin="round"/>
<circle cx="26" cy="26" r="26" fill="#D9D9D9" fill-opacity="0.1"/>
</svg>
