<svg width="52" height="52" viewBox="0 0 52 52" fill="none" xmlns="http://www.w3.org/2000/svg">
<path d="M31.625 20.375V20.3875M16 21C16 19.6739 16.5268 18.4021 17.4645 17.4645C18.4021 16.5268 19.6739 16 21 16H31C32.3261 16 33.5979 16.5268 34.5355 17.4645C35.4732 18.4021 36 19.6739 36 21V31C36 32.3261 35.4732 33.5979 34.5355 34.5355C33.5979 35.4732 32.3261 36 31 36H21C19.6739 36 18.4021 35.4732 17.4645 34.5355C16.5268 33.5979 16 32.3261 16 31V21ZM22.25 26C22.25 26.9946 22.6451 27.9484 23.3483 28.6517C24.0516 29.3549 25.0054 29.75 26 29.75C26.9946 29.75 27.9484 29.3549 28.6517 28.6517C29.3549 27.9484 29.75 26.9946 29.75 26C29.75 25.0054 29.3549 24.0516 28.6517 23.3483C27.9484 22.6451 26.9946 22.25 26 22.25C25.0054 22.25 24.0516 22.6451 23.3483 23.3483C22.6451 24.0516 22.25 25.0054 22.25 26Z" stroke="#C7C7C7" stroke-width="1.42" stroke-linecap="round" stroke-linejoin="round"/>
<circle cx="26" cy="26" r="26" fill="#D9D9D9" fill-opacity="0.1"/>
</svg>
