<svg width="43" height="30" viewBox="0 0 43 30" fill="none" xmlns="http://www.w3.org/2000/svg">
<path d="M20.6211 1C14.984 1 11.466 3.76647 10.0556 9.30168C12.1678 6.53294 14.6354 5.49835 17.4517 6.18883C19.059 6.58275 20.2068 7.72828 21.4769 8.99605C23.5506 11.0607 26.0047 13.4514 31.1844 13.4514C36.8215 13.4514 40.3396 10.6849 41.75 5.14971C39.6378 7.91844 37.1702 8.95304 34.3539 8.26256C32.7465 7.86864 31.5987 6.72311 30.3287 5.45533C28.255 3.39067 25.8575 1 20.6211 1ZM11.5656 15.7153C5.92849 15.7153 2.4104 18.4817 1 24.017C3.11221 21.2482 5.57985 20.2136 8.39613 20.9041C10.0035 21.298 11.1513 22.4436 12.4213 23.7113C14.495 25.776 16.8925 28.1667 22.1289 28.1667C27.766 28.1667 31.284 25.4002 32.6944 19.865C30.5822 22.6337 28.1146 23.6683 25.2983 22.9778C23.691 22.5839 22.5432 21.4384 21.2731 20.1706C19.1994 18.1059 16.8019 15.7153 11.5656 15.7153Z" stroke="#333333" stroke-width="2" stroke-linecap="round" stroke-linejoin="round"/>
</svg>
