<svg width="21" height="21" viewBox="0 0 21 21" fill="none" xmlns="http://www.w3.org/2000/svg">
<path d="M5.75 9.3125V15.25M5.75 5.75V5.76188M10.5 15.25V9.3125M15.25 15.25V11.6875C15.25 11.0576 14.9998 10.4535 14.5544 10.0081C14.109 9.56272 13.5049 9.3125 12.875 9.3125C12.2451 9.3125 11.641 9.56272 11.1956 10.0081C10.7502 10.4535 10.5 11.0576 10.5 11.6875M1 3.375C1 2.74511 1.25022 2.14102 1.69562 1.69562C2.14102 1.25022 2.74511 1 3.375 1H17.625C18.2549 1 18.859 1.25022 19.3044 1.69562C19.7498 2.14102 20 2.74511 20 3.375V17.625C20 18.2549 19.7498 18.859 19.3044 19.3044C18.859 19.7498 18.2549 20 17.625 20H3.375C2.74511 20 2.14102 19.7498 1.69562 19.3044C1.25022 18.859 1 18.2549 1 17.625V3.375Z" stroke="#402D9C" stroke-width="1.42" stroke-linecap="round" stroke-linejoin="round"/>
</svg>
