<svg width="22" height="23" viewBox="0 0 22 23" fill="none" xmlns="http://www.w3.org/2000/svg">
<path d="M8.05882 19.6566C3 21.297 3 16.7272 1 16.1414M15.1176 22V17.899C15.1176 16.7272 15.2353 16.2586 14.5294 15.5555C17.8235 15.204 21 13.9151 21 8.52518C20.9986 7.12493 20.4501 5.78019 19.4706 4.77566C19.93 3.55937 19.8877 2.21149 19.3529 1.02615C19.3529 1.02615 18.0588 0.674629 15.2353 2.54939C12.8438 1.92906 10.3327 1.92906 7.94118 2.54939C5.11765 0.674629 3.82353 1.02615 3.82353 1.02615C3.2888 2.21149 3.24651 3.55937 3.70588 4.77566C2.72642 5.78019 2.1779 7.12493 2.17647 8.52518C2.17647 13.9151 5.35294 15.204 8.64706 15.5555C7.94118 16.2586 7.94118 16.9616 8.05882 17.899V22" stroke="white" stroke-width="1.42" stroke-linecap="round" stroke-linejoin="round"/>
</svg>
